<?xml version="1.0" encoding="utf-8"?>
<svg xmlns="http://www.w3.org/2000/svg" xmlns:xlink="http://www.w3.org/1999/xlink" width="80" height="80" viewBox="251 314 608 472">
  <path transform="scale(1.0236 1.0236)" d="M412.839 628.051C418.752 629.666 424.61 631.758 430.454 633.623C430.66 638.978 430.873 643.187 427.739 647.824C425.548 649.347 422.854 650.568 420.122 650.434C418.171 650.339 416.505 649.258 415.322 647.748C411.243 642.537 412.135 634.236 412.839 628.051Z" />
  <path transform="scale(1.0236 1.0236)" d="M495.785 435.134C498.846 434.977 501.971 434.881 505.031 435.091C509.902 435.425 513.13 437.003 516.259 440.679L516.401 588.715C516.414 598.526 517.916 640.848 516.039 646.46C515.564 647.877 513.597 649.39 512.247 650.005C511.033 650.557 510.711 650.354 509.574 649.9C507.133 647.238 506.232 642.898 505.086 639.524Q500.333 627.179 495.788 614.756C512.302 573.74 514.108 522.328 500.441 480.411Q497.971 472.656 494.579 465.258C491.728 458.998 487.107 451.701 485.96 444.936C485.614 442.89 485.824 440.826 487.111 439.131C489.203 436.377 492.54 435.549 495.785 435.134Z" />
  <path transform="scale(1.0236 1.0236)" d="M636.122 434.983C637.461 434.95 638.925 434.916 640.243 435.193C642.411 435.649 644.362 436.838 645.518 438.752C646.57 440.494 646.899 442.259 646.991 444.266C647.523 455.914 647.031 467.824 647.029 479.495L647.091 545.966L647.116 606.893C647.111 618.577 648.49 636.51 645.537 647.511C643.918 648.913 642.519 649.841 640.514 650.604C639.273 650.56 638.009 650.525 636.787 650.289C634.846 649.913 632.954 649.074 631.878 647.332C630.095 644.443 630.207 639.493 630.099 636.182C629.718 624.568 629.979 612.862 629.995 601.238L630.251 523.248L629.907 466.365C629.906 458.434 628.863 448.389 630.724 440.72C631.442 437.762 633.681 436.482 636.122 434.983Z" />
  <path transform="scale(1.0236 1.0236)" d="M551.274 435.034C552.474 435.004 553.733 434.942 554.914 435.187C557.05 435.63 559.051 436.811 560.223 438.677C561.859 441.283 561.843 446.064 561.937 449.109C562.398 463.899 561.966 478.834 561.963 493.64L561.957 579.897L562.048 618.258C562.088 626.487 563.182 636.371 561.211 644.388C560.408 647.65 558.326 648.894 555.581 650.532C554.237 650.546 552.837 650.594 551.516 650.321C549.539 649.912 547.217 648.883 546.165 647.073C544.501 644.208 544.86 638.832 544.772 635.547C543.559 589.772 544.612 543.799 544.564 498C544.555 489.559 543.472 445.904 545.019 440.582C545.845 437.737 548.88 436.372 551.274 435.034Z" />
  <path transform="scale(1.0236 1.0236)" d="M349.482 597.093C355.993 601.725 363.273 605.208 369.672 609.948L369.703 610.623C370.3 625.269 364.416 652.561 375.828 663.221C379.059 666.24 383.277 667.954 387.601 668.67C397.091 670.239 407.986 669.021 417.636 669.015C432.693 669.005 448.097 669.745 463.112 668.917C466.007 668.758 468.408 668.656 470.406 666.317C471.531 664.999 472.228 663.233 472.944 661.667C478.98 661.54 485.234 660.007 491.014 658.362C492.219 665.662 491.926 672.561 487.538 678.887C483.321 684.969 476.634 688.36 469.451 689.459C456.094 691.504 436.935 689.613 422.943 689.507C409.298 689.404 395.184 691.343 381.66 688.893C375.638 687.803 370.359 685.3 365.482 681.619C356.332 674.712 350.991 665.492 349.514 654.135C348.391 645.507 348.939 636.486 349.125 627.807Q349.502 612.452 349.482 597.093Z" />
  <path transform="scale(1.0236 1.0236)" d="M685.08 435.038C688.168 434.993 691.528 434.799 694.574 435.304C697.396 435.773 700.136 437.076 701.697 439.575C702.895 441.492 702.911 444.567 702.997 446.796C703.531 460.659 703.093 474.736 703.124 488.62L703.107 576.857L703.025 616.763C703.015 625.355 703.842 634.894 702.124 643.305C701.373 646.98 699.214 648.323 696.297 650.274C693.226 651.26 689.049 651.419 685.928 650.652C683.416 650.034 681.094 648.544 679.846 646.218C678.416 643.553 678.56 638.499 678.482 635.498C678.097 620.68 678.49 605.752 678.509 590.925L678.546 506.892L678.499 464.713C678.49 458.587 677.416 446.185 679.081 440.832C680.062 437.674 682.275 436.465 685.08 435.038Z" />
  <path transform="scale(1.0236 1.0236)" d="M594.292 434.719C599.158 434.455 606.329 434.293 610.338 437.493C612.982 439.603 612.958 444.004 613.256 447.189C614.224 457.51 613.632 467.942 613.623 478.293L613.738 528.279L613.623 598.251C613.621 611.167 614.309 624.276 613.594 637.166C613.403 640.599 613.612 644.693 611.166 647.397C608.683 650.142 604.881 650.214 601.458 650.452C595.52 650.559 586.504 651.545 581.615 647.749C578.964 645.69 578.959 642.963 578.701 639.865C577.96 630.967 578.732 621.61 578.792 612.665L578.889 561.789L578.897 487.95C578.87 473.901 578.356 459.648 578.987 445.622C579.112 442.858 578.938 440.163 580.907 437.99C584.038 434.535 590.059 434.916 594.292 434.719Z" />
  <path transform="scale(1.0236 1.0236)" d="M441.933 394.977L636.224 394.995L689.44 394.924C699.314 394.904 710.174 393.998 719.916 395.558Q721.422 395.803 722.903 396.167Q724.385 396.53 725.832 397.011Q727.28 397.491 728.685 398.085Q730.09 398.679 731.444 399.383Q732.797 400.087 734.09 400.896Q735.383 401.706 736.608 402.615Q737.832 403.525 738.981 404.529Q740.129 405.533 741.194 406.625C745.912 411.368 750.85 418.694 752.175 425.344C753.678 432.892 753.062 441.159 753.064 448.829L753.126 485.556C753.528 539.273 753.947 593.121 753.35 646.834C753.29 652.203 753.221 659.411 750.856 664.302C745.859 674.638 738.028 683.461 726.961 687.415C714.253 691.956 693.065 689.829 679.341 689.701L644.649 689.646C597.863 689.612 551.007 689 504.228 689.585C507.741 682.921 509.502 676.438 510.727 669.026C559.599 668.092 608.645 668.956 657.536 668.967L693.769 669.104C701.124 669.157 708.794 669.728 716.097 668.789C720.311 668.248 724.134 666.732 727.098 663.598C730.102 660.422 731.268 656.583 731.844 652.352C733.662 638.99 732.481 622.983 732.489 609.25L732.534 543.011C732.535 531.128 732.252 519.202 732.578 507.325C731.875 484.683 732.422 461.779 732.66 439.121C732.092 432.325 730.944 425.367 725.364 420.728C721.605 417.602 717.495 416.778 712.787 416.331C703.407 415.442 693.617 416.016 684.193 416.049L636.186 416.093C578.924 416.112 521.602 416.647 464.344 415.971C456.985 408.832 448.865 402.586 441.933 394.977ZM732.66 439.121C732.422 461.779 731.875 484.683 732.578 507.325C733.016 505.968 733.313 504.608 733.39 503.177C734.134 489.486 733.608 475.48 733.622 461.752C733.629 454.559 734.507 446.418 733.539 439.353L732.66 439.121Z" />
  <path transform="scale(1.0236 1.0236)" d="M732.66 439.121L733.539 439.353C734.507 446.418 733.629 454.559 733.622 461.752C733.608 475.48 734.134 489.486 733.39 503.177C733.313 504.608 733.016 505.968 732.578 507.325C731.875 484.683 732.422 461.779 732.66 439.121Z" />
  <path fill="#43760D" transform="scale(1.0236 1.0236)" d="M274.923 335.138C287.061 337.913 299.111 341.749 310.883 345.785C373.865 367.372 442.925 402.725 473.494 465.332C498.077 515.68 493.144 564.076 475.417 615.533C481.045 629.531 486.412 643.999 491.014 658.362C485.234 660.007 478.98 661.54 472.944 661.667C466.761 649.26 463.817 635.636 457.887 623.084C429.645 613.089 400.711 605.16 374.499 590.188C368.16 586.568 362.074 582.311 356.062 578.177C339.477 566.771 325.068 553.432 313.008 537.262C270.449 480.201 264.956 403.357 274.923 335.138ZM292.544 360.322C288.691 421.545 295.283 488.335 337.771 536.282C368.003 570.398 409.863 586.74 451.931 601.026C448.056 590.127 444.444 579.014 440.009 568.332Q437.321 561.958 434.402 555.686Q431.484 549.415 428.338 543.254Q425.192 537.093 421.823 531.051Q418.454 525.009 414.866 519.095Q411.279 513.18 407.478 507.4Q403.677 501.621 399.667 495.984Q395.657 490.347 391.445 484.86Q387.232 479.373 382.821 474.044C373.564 462.867 363.124 452.848 353.736 441.859C361.469 444.606 368.498 450.062 375.094 454.859C408.155 478.904 433.19 511.149 450.73 547.939C456.327 559.677 460.15 571.981 465.274 583.871C466.823 574.651 468.778 565.686 469.703 556.355C473.315 519.907 465.212 483.921 443.871 453.819C415.778 414.196 370.551 390.769 326.598 373.025C315.384 368.498 303.635 365.079 292.544 360.322Z" />
</svg>